<?xml version="1.0" encoding="utf-8"?>
<!-- Generator: Adobe Illustrator 21.0.0, SVG Export Plug-In . SVG Version: 6.00 Build 0)  -->
<svg version="1.1" id="Calque_1" xmlns="http://www.w3.org/2000/svg" xmlns:xlink="http://www.w3.org/1999/xlink" x="0px" y="0px"
	 viewBox="0 0 86.5 283.5" style="enable-background:new 0 0 86.5 283.5;" xml:space="preserve">
<style type="text/css">
	.st0{fill:#243F3F;}
</style>
<g>
	<path class="st0" d="M58.1,71.9c-1.7-19-11.5-51.7-16.6-68.5c-0.3-1-1.8-1-2.1,0c-7.8,28-16.3,64.5-14.3,94
		c-2.1-9.9-2.4-13.6-5.2-23.7c-0.2-0.8-1.4-0.8-1.5,0C3.2,150.3-6.2,251.9,36.9,249.7c0,0,0,0,0,0c1,16.3-4.3,26.8-2.4,28
		c5,3.2,16,1.9,16,1.9l-0.2-4.5c0,0-4.6,0.7-8.3-1.7c-1.9-1.2,0.4-11.4-0.7-27.7c0,0,0,0,0,0C7,245.2,6.4,166.9,20,87.1
		c1.8,5.3,3.2,13,4.6,19.1c1.4,0.4,3.9,0.1,5.3-0.4c-2.3-25.9,2-60.2,10.9-93.3c5.4,20.3,12.2,40.5,15.1,60.3L58.1,71.9z"/>
	<path class="st0" d="M71.1,161.9c1-2.3,3-6.2,4.6-9.8c5.2,47.1-1.6,68.6-8.4,82.8c0.2,0.2,2,1.5,2.3,1.6
		c12.4-16.5,16.5-49.4,8.1-94.3c-0.2-0.8-1.3-0.9-1.6-0.1c-2.7,7.5-6.2,19.4-6.2,19.4S70.7,161.8,71.1,161.9z"/>
</g>
</svg>
