<?xml version="1.0" encoding="utf-8"?>
<!-- Generator: Adobe Illustrator 21.0.0, SVG Export Plug-In . SVG Version: 6.00 Build 0)  -->
<svg version="1.1" id="Calque_1" xmlns="http://www.w3.org/2000/svg" xmlns:xlink="http://www.w3.org/1999/xlink" x="0px" y="0px"
	 viewBox="0 0 283.5 283.5" style="enable-background:new 0 0 283.5 283.5;" xml:space="preserve">
<style type="text/css">
	.st0{fill:#2C3B3E;}
	.st1{fill:#32565B;}
	.st2{fill:#32464A;}
</style>
<path class="st0" d="M25.9,150.4c0,0,37.4,122.6,151,108.1C290.4,243.9,25.9,150.4,25.9,150.4z"/>
<g>
	<path class="st1" d="M177.5,73.1c0.9,19.3,2.4,38.6,4.2,57.8l1.5,14.4c0.6,4.8,1.1,9.6,1.8,14.4c0.7,4.8,1.2,9.6,2,14.3
		c0.7,4.8,1.5,9.5,2.4,14.2l1.3,7.1l1.5,7c0.9,4.7,2.2,9.3,3.4,13.9c0.5,2.3,1.4,4.5,2.1,6.8l1.1,3.4c0.4,1.1,0.7,2.2,1.2,3.3
		c1.6,4.4,3.5,8.7,5.6,12.8c4.2,8.3,9.6,15.9,16.4,21.7c1.7,1.4,3.5,2.8,5.4,4c1.9,1.2,3.8,2.2,5.8,3.1c2,0.9,4.1,1.6,6.2,2
		c1.1,0.2,2.1,0.4,3.2,0.5c0.5,0.1,1.1,0.1,1.6,0.1c0.3,0,0.5,0,0.8,0l0.6,0l0.8,7c-0.5,0.1-0.8,0.1-1.2,0.1c-0.4,0-0.7,0-1.1,0
		c-0.7,0-1.4,0-2.1-0.1c-1.4-0.1-2.7-0.3-4-0.5c-2.6-0.5-5.2-1.2-7.7-2.2c-4.9-1.9-9.4-4.7-13.5-8c-4-3.3-7.5-7.1-10.6-11.2
		c-3.1-4.1-5.7-8.4-8-12.9c-2.3-4.5-4.3-9.1-5.9-13.8c-0.2-0.6-0.4-1.2-0.6-1.8l-0.5-1.8l-1.1-3.6c-0.7-2.4-1.5-4.7-2-7.1
		c-1.2-4.8-2.4-9.6-3.3-14.4l-1.4-7.2l-1.2-7.2c-0.9-4.8-1.5-9.6-2.2-14.5c-0.3-2.4-0.7-4.8-0.9-7.2l-0.8-7.3
		c-0.5-4.8-0.9-9.7-1.4-14.5l-1.1-14.5c-0.6-9.7-1.2-19.4-1.6-29.1c-0.4-9.7-0.6-19.4-0.6-29.1L177.5,73.1z"/>
</g>
<path class="st2" d="M76.9,20c0,0-6.8,174.5,91.7,197S76.9,20,76.9,20z"/>
</svg>
